<?xml version="1.0" standalone="no"?>
<svg xmlns:xlink="http://www.w3.org/1999/xlink" id="wave" style="transform:rotate(0deg); transition: 0.3s" viewBox="0 0 1440 370" version="1.1" xmlns="http://www.w3.org/2000/svg"><defs><linearGradient id="sw-gradient-0" x1="0" x2="0" y1="1" y2="0"><stop stop-color="rgba(77, 127, 39, 1)" offset="0%"/><stop stop-color="rgba(149, 199, 107, 1)" offset="100%"/></linearGradient></defs><path style="transform:translate(0, 0px); opacity:1" fill="url(#sw-gradient-0)" d="M0,148L60,172.7C120,197,240,247,360,228.2C480,210,600,123,720,117.2C840,111,960,185,1080,178.8C1200,173,1320,86,1440,55.5C1560,25,1680,49,1800,61.7C1920,74,2040,74,2160,117.2C2280,160,2400,247,2520,234.3C2640,222,2760,111,2880,80.2C3000,49,3120,99,3240,135.7C3360,173,3480,197,3600,172.7C3720,148,3840,74,3960,55.5C4080,37,4200,74,4320,123.3C4440,173,4560,234,4680,215.8C4800,197,4920,99,5040,74C5160,49,5280,99,5400,104.8C5520,111,5640,74,5760,61.7C5880,49,6000,62,6120,111C6240,160,6360,247,6480,289.8C6600,333,6720,333,6840,296C6960,259,7080,185,7200,166.5C7320,148,7440,185,7560,215.8C7680,247,7800,271,7920,240.5C8040,210,8160,123,8280,92.5C8400,62,8520,86,8580,98.7L8640,111L8640,370L8580,370C8520,370,8400,370,8280,370C8160,370,8040,370,7920,370C7800,370,7680,370,7560,370C7440,370,7320,370,7200,370C7080,370,6960,370,6840,370C6720,370,6600,370,6480,370C6360,370,6240,370,6120,370C6000,370,5880,370,5760,370C5640,370,5520,370,5400,370C5280,370,5160,370,5040,370C4920,370,4800,370,4680,370C4560,370,4440,370,4320,370C4200,370,4080,370,3960,370C3840,370,3720,370,3600,370C3480,370,3360,370,3240,370C3120,370,3000,370,2880,370C2760,370,2640,370,2520,370C2400,370,2280,370,2160,370C2040,370,1920,370,1800,370C1680,370,1560,370,1440,370C1320,370,1200,370,1080,370C960,370,840,370,720,370C600,370,480,370,360,370C240,370,120,370,60,370L0,370Z"/><defs><linearGradient id="sw-gradient-1" x1="0" x2="0" y1="1" y2="0"><stop stop-color="rgba(105.736, 154.418, 67.764, 1)" offset="0%"/><stop stop-color="rgba(142.06, 165.043, 123.215, 1)" offset="100%"/></linearGradient></defs><path style="transform:translate(0, 50px); opacity:0.9" fill="url(#sw-gradient-1)" d="M0,37L60,61.7C120,86,240,136,360,135.7C480,136,600,86,720,98.7C840,111,960,185,1080,203.5C1200,222,1320,185,1440,178.8C1560,173,1680,197,1800,209.7C1920,222,2040,222,2160,222C2280,222,2400,222,2520,209.7C2640,197,2760,173,2880,154.2C3000,136,3120,123,3240,154.2C3360,185,3480,259,3600,296C3720,333,3840,333,3960,283.7C4080,234,4200,136,4320,86.3C4440,37,4560,37,4680,86.3C4800,136,4920,234,5040,246.7C5160,259,5280,185,5400,135.7C5520,86,5640,62,5760,67.8C5880,74,6000,111,6120,141.8C6240,173,6360,197,6480,185C6600,173,6720,123,6840,141.8C6960,160,7080,247,7200,277.5C7320,308,7440,284,7560,234.3C7680,185,7800,111,7920,80.2C8040,49,8160,62,8280,67.8C8400,74,8520,74,8580,74L8640,74L8640,370L8580,370C8520,370,8400,370,8280,370C8160,370,8040,370,7920,370C7800,370,7680,370,7560,370C7440,370,7320,370,7200,370C7080,370,6960,370,6840,370C6720,370,6600,370,6480,370C6360,370,6240,370,6120,370C6000,370,5880,370,5760,370C5640,370,5520,370,5400,370C5280,370,5160,370,5040,370C4920,370,4800,370,4680,370C4560,370,4440,370,4320,370C4200,370,4080,370,3960,370C3840,370,3720,370,3600,370C3480,370,3360,370,3240,370C3120,370,3000,370,2880,370C2760,370,2640,370,2520,370C2400,370,2280,370,2160,370C2040,370,1920,370,1800,370C1680,370,1560,370,1440,370C1320,370,1200,370,1080,370C960,370,840,370,720,370C600,370,480,370,360,370C240,370,120,370,60,370L0,370Z"/><defs><linearGradient id="sw-gradient-2" x1="0" x2="0" y1="1" y2="0"><stop stop-color="rgba(113, 163, 73, 1)" offset="0%"/><stop stop-color="rgba(149, 199, 107, 1)" offset="100%"/></linearGradient></defs><path style="transform:translate(0, 100px); opacity:0.8" fill="url(#sw-gradient-2)" d="M0,296L60,302.2C120,308,240,321,360,302.2C480,284,600,234,720,234.3C840,234,960,284,1080,283.7C1200,284,1320,234,1440,203.5C1560,173,1680,160,1800,166.5C1920,173,2040,197,2160,203.5C2280,210,2400,197,2520,215.8C2640,234,2760,284,2880,271.3C3000,259,3120,185,3240,129.5C3360,74,3480,37,3600,67.8C3720,99,3840,197,3960,246.7C4080,296,4200,296,4320,271.3C4440,247,4560,197,4680,154.2C4800,111,4920,74,5040,67.8C5160,62,5280,86,5400,86.3C5520,86,5640,62,5760,55.5C5880,49,6000,62,6120,86.3C6240,111,6360,148,6480,178.8C6600,210,6720,234,6840,228.2C6960,222,7080,185,7200,166.5C7320,148,7440,148,7560,172.7C7680,197,7800,247,7920,234.3C8040,222,8160,148,8280,135.7C8400,123,8520,173,8580,197.3L8640,222L8640,370L8580,370C8520,370,8400,370,8280,370C8160,370,8040,370,7920,370C7800,370,7680,370,7560,370C7440,370,7320,370,7200,370C7080,370,6960,370,6840,370C6720,370,6600,370,6480,370C6360,370,6240,370,6120,370C6000,370,5880,370,5760,370C5640,370,5520,370,5400,370C5280,370,5160,370,5040,370C4920,370,4800,370,4680,370C4560,370,4440,370,4320,370C4200,370,4080,370,3960,370C3840,370,3720,370,3600,370C3480,370,3360,370,3240,370C3120,370,3000,370,2880,370C2760,370,2640,370,2520,370C2400,370,2280,370,2160,370C2040,370,1920,370,1800,370C1680,370,1560,370,1440,370C1320,370,1200,370,1080,370C960,370,840,370,720,370C600,370,480,370,360,370C240,370,120,370,60,370L0,370Z"/></svg>