<?xml version="1.0" standalone="no"?>
<svg xmlns:xlink="http://www.w3.org/1999/xlink" id="wave" style="transform:rotate(0deg); transition: 0.3s" viewBox="0 0 1440 330" version="1.1" xmlns="http://www.w3.org/2000/svg"><defs><linearGradient id="sw-gradient-0" x1="0" x2="0" y1="1" y2="0"><stop stop-color="rgba(77, 127, 39, 1)" offset="0%"/><stop stop-color="rgba(149, 199, 107, 1)" offset="100%"/></linearGradient></defs><path style="transform:translate(0, 0px); opacity:1" fill="url(#sw-gradient-0)" d="M0,132L60,154C120,176,240,220,360,203.5C480,187,600,110,720,104.5C840,99,960,165,1080,159.5C1200,154,1320,77,1440,49.5C1560,22,1680,44,1800,55C1920,66,2040,66,2160,104.5C2280,143,2400,220,2520,209C2640,198,2760,99,2880,71.5C3000,44,3120,88,3240,121C3360,154,3480,176,3600,154C3720,132,3840,66,3960,49.5C4080,33,4200,66,4320,110C4440,154,4560,209,4680,192.5C4800,176,4920,88,5040,66C5160,44,5280,88,5400,93.5C5520,99,5640,66,5760,55C5880,44,6000,55,6120,99C6240,143,6360,220,6480,258.5C6600,297,6720,297,6840,264C6960,231,7080,165,7200,148.5C7320,132,7440,165,7560,192.5C7680,220,7800,242,7920,214.5C8040,187,8160,110,8280,82.5C8400,55,8520,77,8580,88L8640,99L8640,330L8580,330C8520,330,8400,330,8280,330C8160,330,8040,330,7920,330C7800,330,7680,330,7560,330C7440,330,7320,330,7200,330C7080,330,6960,330,6840,330C6720,330,6600,330,6480,330C6360,330,6240,330,6120,330C6000,330,5880,330,5760,330C5640,330,5520,330,5400,330C5280,330,5160,330,5040,330C4920,330,4800,330,4680,330C4560,330,4440,330,4320,330C4200,330,4080,330,3960,330C3840,330,3720,330,3600,330C3480,330,3360,330,3240,330C3120,330,3000,330,2880,330C2760,330,2640,330,2520,330C2400,330,2280,330,2160,330C2040,330,1920,330,1800,330C1680,330,1560,330,1440,330C1320,330,1200,330,1080,330C960,330,840,330,720,330C600,330,480,330,360,330C240,330,120,330,60,330L0,330Z"/><defs><linearGradient id="sw-gradient-1" x1="0" x2="0" y1="1" y2="0"><stop stop-color="rgba(90.639, 129.374, 60.426, 1)" offset="0%"/><stop stop-color="rgba(119.075, 156.695, 88.227, 1)" offset="100%"/></linearGradient></defs><path style="transform:translate(0, 50px); opacity:0.9" fill="url(#sw-gradient-1)" d="M0,33L60,55C120,77,240,121,360,121C480,121,600,77,720,88C840,99,960,165,1080,181.5C1200,198,1320,165,1440,159.5C1560,154,1680,176,1800,187C1920,198,2040,198,2160,198C2280,198,2400,198,2520,187C2640,176,2760,154,2880,137.5C3000,121,3120,110,3240,137.5C3360,165,3480,231,3600,264C3720,297,3840,297,3960,253C4080,209,4200,121,4320,77C4440,33,4560,33,4680,77C4800,121,4920,209,5040,220C5160,231,5280,165,5400,121C5520,77,5640,55,5760,60.5C5880,66,6000,99,6120,126.5C6240,154,6360,176,6480,165C6600,154,6720,110,6840,126.5C6960,143,7080,220,7200,247.5C7320,275,7440,253,7560,209C7680,165,7800,99,7920,71.5C8040,44,8160,55,8280,60.5C8400,66,8520,66,8580,66L8640,66L8640,330L8580,330C8520,330,8400,330,8280,330C8160,330,8040,330,7920,330C7800,330,7680,330,7560,330C7440,330,7320,330,7200,330C7080,330,6960,330,6840,330C6720,330,6600,330,6480,330C6360,330,6240,330,6120,330C6000,330,5880,330,5760,330C5640,330,5520,330,5400,330C5280,330,5160,330,5040,330C4920,330,4800,330,4680,330C4560,330,4440,330,4320,330C4200,330,4080,330,3960,330C3840,330,3720,330,3600,330C3480,330,3360,330,3240,330C3120,330,3000,330,2880,330C2760,330,2640,330,2520,330C2400,330,2280,330,2160,330C2040,330,1920,330,1800,330C1680,330,1560,330,1440,330C1320,330,1200,330,1080,330C960,330,840,330,720,330C600,330,480,330,360,330C240,330,120,330,60,330L0,330Z"/><defs><linearGradient id="sw-gradient-2" x1="0" x2="0" y1="1" y2="0"><stop stop-color="rgba(106.206, 147.588, 73.1, 1)" offset="0%"/><stop stop-color="rgba(104.255, 120.267, 90.805, 1)" offset="100%"/></linearGradient></defs><path style="transform:translate(0, 100px); opacity:0.8" fill="url(#sw-gradient-2)" d="M0,264L60,269.5C120,275,240,286,360,269.5C480,253,600,209,720,209C840,209,960,253,1080,253C1200,253,1320,209,1440,181.5C1560,154,1680,143,1800,148.5C1920,154,2040,176,2160,181.5C2280,187,2400,176,2520,192.5C2640,209,2760,253,2880,242C3000,231,3120,165,3240,115.5C3360,66,3480,33,3600,60.5C3720,88,3840,176,3960,220C4080,264,4200,264,4320,242C4440,220,4560,176,4680,137.5C4800,99,4920,66,5040,60.5C5160,55,5280,77,5400,77C5520,77,5640,55,5760,49.5C5880,44,6000,55,6120,77C6240,99,6360,132,6480,159.5C6600,187,6720,209,6840,203.5C6960,198,7080,165,7200,148.5C7320,132,7440,132,7560,154C7680,176,7800,220,7920,209C8040,198,8160,132,8280,121C8400,110,8520,154,8580,176L8640,198L8640,330L8580,330C8520,330,8400,330,8280,330C8160,330,8040,330,7920,330C7800,330,7680,330,7560,330C7440,330,7320,330,7200,330C7080,330,6960,330,6840,330C6720,330,6600,330,6480,330C6360,330,6240,330,6120,330C6000,330,5880,330,5760,330C5640,330,5520,330,5400,330C5280,330,5160,330,5040,330C4920,330,4800,330,4680,330C4560,330,4440,330,4320,330C4200,330,4080,330,3960,330C3840,330,3720,330,3600,330C3480,330,3360,330,3240,330C3120,330,3000,330,2880,330C2760,330,2640,330,2520,330C2400,330,2280,330,2160,330C2040,330,1920,330,1800,330C1680,330,1560,330,1440,330C1320,330,1200,330,1080,330C960,330,840,330,720,330C600,330,480,330,360,330C240,330,120,330,60,330L0,330Z"/></svg>